<?xml version="1.0" encoding="UTF-8"?>
<svg version="1.1" xmlns="http://www.w3.org/2000/svg" width="48" height="48">
<path d="M0 0 C1.4540625 -0.00386719 1.4540625 -0.00386719 2.9375 -0.0078125 C3.948125 -0.00007812 4.95875 0.00765625 6 0.015625 C7.010625 0.00789062 8.02125 0.00015625 9.0625 -0.0078125 C10.031875 -0.00523437 11.00125 -0.00265625 12 0 C12.886875 0.00225586 13.77375 0.00451172 14.6875 0.00683594 C17 0.265625 17 0.265625 20 2.265625 C20.26686213 4.96102815 20.34818073 7.42409964 20.29296875 10.1171875 C20.28872391 10.89121918 20.28447906 11.66525085 20.28010559 12.46273804 C20.26328998 14.93905177 20.22563395 17.41455658 20.1875 19.890625 C20.17245682 21.56769659 20.15876778 23.24478092 20.14648438 24.921875 C20.11337721 29.03677081 20.06157637 33.15106069 20 37.265625 C19.39019287 37.05993896 18.78038574 36.85425293 18.15209961 36.64233398 C17.34780518 36.37235596 16.54351074 36.10237793 15.71484375 35.82421875 C14.91941162 35.55665771 14.12397949 35.28909668 13.30444336 35.01342773 C6.43915786 32.78561022 2.57786546 33.44560921 -3.86328125 36.35546875 C-6 37.265625 -6 37.265625 -8 37.265625 C-8.07404737 32.31774186 -8.12855246 27.37017976 -8.16479492 22.421875 C-8.17990003 20.7378986 -8.20038546 19.05396165 -8.22631836 17.37011719 C-8.26262721 14.95237507 -8.27970847 12.53515208 -8.29296875 10.1171875 C-8.30845261 9.3619278 -8.32393646 8.60666809 -8.33988953 7.82852173 C-8.34057617 5.70556641 -8.34057617 5.70556641 -8 2.265625 C-4.74143956 0.09325138 -3.77357656 0.00959849 0 0 Z M-5 4.265625 C-5 13.505625 -5 22.745625 -5 32.265625 C-1.7 30.945625 1.6 29.625625 5 28.265625 C8.47467474 29.10130627 10.88767449 29.80811469 14 31.265625 C14.99 31.595625 15.98 31.925625 17 32.265625 C17 23.025625 17 13.785625 17 4.265625 C9.74 4.265625 2.48 4.265625 -5 4.265625 Z " fill="#2C2C2C" transform="translate(18,4.734375)"/>
</svg>
