<?xml version="1.0" encoding="UTF-8"?>
<svg version="1.1" xmlns="http://www.w3.org/2000/svg" width="48" height="48">
<path d="M0 0 C3.14274844 0.01120409 4.14859588 0.18868588 6.9375 1.875 C7.700625 2.32875 8.46375 2.7825 9.25 3.25 C11.9504039 2.60336433 11.9504039 2.60336433 14.25 1.25 C17.46459986 -0.35729993 20.77388103 -0.36930855 24.25 0.25 C27.1875 2.6875 27.1875 2.6875 29.25 5.25 C29.745 5.745 29.745 5.745 30.25 6.25 C31.0708696 11.48694026 30.8626559 16.04749964 28.0625 20.625 C23.36683307 26.95789705 17.15141217 32.0753196 11.25 37.25 C3.62613793 34.06882014 -5.07009265 25.54063899 -9.0390625 18.2890625 C-10.44406322 14.25933516 -10.67293729 10.41394963 -9.75 6.25 C-7.3125 3.1875 -7.3125 3.1875 -4.75 1.25 C-3.75 0.25 -3.75 0.25 0 0 Z " fill="#FFFFFF" transform="translate(13.75,4.75)"/>
</svg>
