<svg xmlns="http://www.w3.org/2000/svg" width="512" height="512">
  <path d="m149.932 45.853 2.838-.011q4.738-.015 9.475-.019l6.77-.02q9.217-.025 18.434-.036 5.755-.008 11.509-.018a35131 35131 0 0 1 40.13-.044l2.076-.002c11.099-.008 22.198-.033 33.297-.066q17.088-.049 34.178-.054a5398 5398 0 0 0 19.193-.036q9.027-.035 18.054-.018 3.315 0 6.63-.02c3.015-.017 6.029-.01 9.044.003l2.655-.033c5.404.057 8.518.895 12.785 4.521a69 69 0 0 1 4.438 7.062l1.254 2.21A943 943 0 0 1 387 67l3.488 6.246q3.835 6.877 7.645 13.77a4142 4142 0 0 0 10.992 19.734l1.745 3.115a6593 6593 0 0 0 13.236 23.472c4.58 8.095 9.124 16.21 13.664 24.327A4798 4798 0 0 0 449.5 178.5q6.781 11.983 13.5 24a7203 7203 0 0 0 13.938 24.812l1.633 2.894a860 860 0 0 0 10.257 17.685c2.208 3.974 2.962 7.653 2.172 12.109-1.601 4.201-3.81 8.083-6 12l-1.334 2.392a2256 2256 0 0 1-8.103 14.338A2722 2722 0 0 0 465 307.5a5865 5865 0 0 1-15.105 26.836A4921 4921 0 0 0 438 355.5a5913 5913 0 0 1-15.105 26.836A4928 4928 0 0 0 411 403.5a4757 4757 0 0 1-15.158 26.935 1215 1215 0 0 0-8.37 14.975l-1.76 3.183a789 789 0 0 0-3.312 6.048c-3.04 5.472-5.643 9.48-11.4 12.359-2.985.105-5.947.148-8.932.147l-2.838.011q-4.738.015-9.475.019l-6.77.02q-9.217.025-18.434.036-5.755.008-11.509.018a35131 35131 0 0 1-40.13.044l-2.076.002c-11.099.008-22.198.033-33.297.066q-17.088.049-34.178.054c-6.398.002-12.795.011-19.193.036q-9.027.035-18.054.018-3.315 0-6.63.02c-3.015.017-6.029.01-9.044-.003l-2.655.033c-5.404-.057-8.518-.895-12.785-4.521a69 69 0 0 1-4.437-7.063c-.415-.728-.829-1.457-1.255-2.208A943 943 0 0 1 125 446l-3.488-6.246a4450 4450 0 0 1-7.645-13.77 4142 4142 0 0 0-10.992-19.734l-1.745-3.115a6608 6608 0 0 0-13.236-23.472c-4.58-8.095-9.124-16.21-13.664-24.327A4798 4798 0 0 0 62.5 334.5a5304 5304 0 0 1-13.5-24 7203 7203 0 0 0-13.937-24.813c-.54-.954-1.079-1.91-1.634-2.893a860 860 0 0 0-10.257-17.685C20.964 261.135 20.21 257.456 21 253c1.601-4.201 3.81-8.083 6-12l1.334-2.392a2256 2256 0 0 1 8.104-14.338A2764 2764 0 0 0 47 205.5a5865 5865 0 0 1 15.105-26.836A4921 4921 0 0 0 74 157.5c5.01-8.96 10.048-17.903 15.105-26.836A4928 4928 0 0 0 101 109.5a4757 4757 0 0 1 15.158-26.935 1224 1224 0 0 0 8.37-14.975l1.76-3.183a789 789 0 0 0 3.312-6.048c5.307-9.554 9.423-12.508 20.332-12.506" fill="#0C4A9A"/>
  <path d="M122 168c98.842 0 98.842 0 116 15 1.914 2.516 1.914 2.516 3.625 5.25l1.727 2.703c3.891 7.193 5.177 13.173 5.085 21.36l-.018 2.806c-.288 12.592-4.745 21.302-13.442 30.268-2.468 2.013-5.1 3.271-7.977 4.613l2.71 1.18c12.192 5.541 21.416 12.9 26.29 25.82 3.348 11.436 2.513 26.66-2.516 37.41-2.206 3.85-4.518 7.288-7.484 10.59l-1.586 1.828C234.268 337.784 221.274 341.405 207 344h-85z" fill="#FEFEFE"/>
  <path d="M276 168h114v33h-76v46h63v34h-63v63h-38z" fill="#FCFDFD"/>
  <path d="m149.932 45.853 2.838-.011q4.738-.015 9.475-.019l6.77-.02q9.217-.025 18.434-.036 5.755-.008 11.509-.018a35131 35131 0 0 1 40.13-.044l2.076-.002c11.099-.008 22.198-.033 33.297-.066q17.088-.049 34.178-.054a5398 5398 0 0 0 19.193-.036q9.027-.035 18.054-.018 3.315 0 6.63-.02c3.015-.017 6.029-.01 9.044.003l2.655-.033c5.404.057 8.518.895 12.785 4.521a69 69 0 0 1 4.438 7.062l1.254 2.21A943 943 0 0 1 387 67l3.488 6.246q3.835 6.877 7.645 13.77a4142 4142 0 0 0 10.992 19.734l1.745 3.115a6593 6593 0 0 0 13.236 23.472c4.58 8.095 9.124 16.21 13.664 24.327A4798 4798 0 0 0 449.5 178.5q6.781 11.983 13.5 24a7203 7203 0 0 0 13.938 24.812l1.633 2.894a860 860 0 0 0 10.257 17.685c2.208 3.974 2.962 7.653 2.172 12.109-1.601 4.201-3.81 8.083-6 12l-1.334 2.392a2256 2256 0 0 1-8.103 14.338A2722 2722 0 0 0 465 307.5a5865 5865 0 0 1-15.105 26.836A4921 4921 0 0 0 438 355.5a5913 5913 0 0 1-15.105 26.836A4928 4928 0 0 0 411 403.5a4757 4757 0 0 1-15.158 26.935 1215 1215 0 0 0-8.37 14.975l-1.76 3.183a789 789 0 0 0-3.312 6.048c-3.04 5.472-5.643 9.48-11.4 12.359-2.985.105-5.947.148-8.932.147l-2.838.011q-4.738.015-9.475.019l-6.77.02q-9.217.025-18.434.036-5.755.008-11.509.018a35131 35131 0 0 1-40.13.044l-2.076.002c-11.099.008-22.198.033-33.297.066q-17.088.049-34.178.054c-6.398.002-12.795.011-19.193.036q-9.027.035-18.054.018-3.315 0-6.63.02c-3.015.017-6.029.01-9.044-.003l-2.655.033c-5.404-.057-8.518-.895-12.785-4.521a69 69 0 0 1-4.437-7.063c-.415-.728-.829-1.457-1.255-2.208A943 943 0 0 1 125 446l-3.488-6.246a4450 4450 0 0 1-7.645-13.77 4142 4142 0 0 0-10.992-19.734l-1.745-3.115a6608 6608 0 0 0-13.236-23.472c-4.58-8.095-9.124-16.21-13.664-24.327A4798 4798 0 0 0 62.5 334.5a5304 5304 0 0 1-13.5-24 7203 7203 0 0 0-13.937-24.813c-.54-.954-1.079-1.91-1.634-2.893a860 860 0 0 0-10.257-17.685C20.964 261.135 20.21 257.456 21 253c1.601-4.201 3.81-8.083 6-12l1.334-2.392a2256 2256 0 0 1 8.104-14.338A2764 2764 0 0 0 47 205.5a5865 5865 0 0 1 15.105-26.836A4921 4921 0 0 0 74 157.5c5.01-8.96 10.048-17.903 15.105-26.836A4928 4928 0 0 0 101 109.5a4757 4757 0 0 1 15.158-26.935 1224 1224 0 0 0 8.37-14.975l1.76-3.183a789 789 0 0 0 3.312-6.048c5.307-9.554 9.423-12.508 20.332-12.506m-14.395 12.37c-.394.748-.788 1.497-1.193 2.27l-1.388 2.598-1.456 2.784a4226 4226 0 0 1-3.195 5.973l-1.654 3.094c-2.607 4.829-5.313 9.6-8.026 14.37Q111.773 101.384 105 113.5a5892 5892 0 0 1-15.105 26.836A4921 4921 0 0 0 78 161.5a5913 5913 0 0 1-15.105 26.836 5616 5616 0 0 0-13.645 24.293 5311 5311 0 0 1-13.9 24.674 965 965 0 0 0-2.94 5.228 132 132 0 0 1-2.925 4.875l-1.419 2.313-1.279 1.998c-1.487 4.312-.294 8.134 1.497 12.191l1.638 2.873 1.838 3.264 1.99 3.455q1.027 1.81 2.05 3.623 2.085 3.685 4.19 7.36c2.351 4.11 4.676 8.233 7.001 12.357q2.377 4.211 4.763 8.418c3.436 6.07 6.842 12.155 10.246 18.242q6.719 12.017 13.5 24a5984 5984 0 0 1 15.27 27.164A4798 4798 0 0 0 102.5 395.5a5325 5325 0 0 1 13.5 24 31457 31457 0 0 0 8.817 15.744q2.651 4.724 5.308 9.443l1.613 2.88c3.99 8.296 3.99 8.296 10.262 14.433 2.951.1 5.88.139 8.831.134l2.806.007q4.683.007 9.364.004l6.691.01q9.109.013 18.217.012 7.594.003 15.187.008 16.886.012 33.772.01h4.098q16.452.002 32.903.023 16.882.023 33.766.02 9.48-.001 18.964.014 8.916.014 17.832.003 3.277-.003 6.555.007c2.976.008 5.952.003 8.929-.005l2.637.016 2.416-.014h2.082c2.35-.3 3.93-1.024 5.95-2.249 1.603-2.153 1.603-2.153 2.96-4.785l1.657-3.008 1.758-3.27 3.77-6.87 1.94-3.563c2.95-5.4 5.964-10.764 8.978-16.129l3.503-6.258a5768 5768 0 0 1 11.54-20.453A4934 4934 0 0 0 421 374.5c5.01-8.96 10.048-17.903 15.105-26.836A4921 4921 0 0 0 448 326.5a5322 5322 0 0 1 13.5-24 9373 9373 0 0 0 14.063-24.938l1.769-3.14c1.57-2.8 3.12-5.61 4.668-8.422l1.324-2.286c2.474-4.47 2.897-6.804 1.676-11.714-1.246-2.819-1.246-2.819-2.887-5.613l-1.822-3.243-1.978-3.457q-1.023-1.806-2.041-3.616-2.099-3.72-4.21-7.435c-2.51-4.419-4.985-8.857-7.462-13.295a5657 5657 0 0 0-16.706-29.678c-4.58-8.095-9.124-16.21-13.664-24.327A4798 4798 0 0 0 422.5 140.5a5984 5984 0 0 1-15.27-27.164 4991 4991 0 0 0-13.313-23.63 2419 2419 0 0 1-8.737-15.561l-1.924-3.454a3266 3266 0 0 1-3.676-6.62l-1.682-3.02-1.479-2.667c-2.727-4.835-2.727-4.835-7.419-7.384-2.99-.105-5.955-.152-8.945-.154l-2.806-.013q-4.674-.019-9.348-.026l-6.686-.025c-7.33-.026-14.66-.041-21.988-.055l-7.562-.017a31320 31320 0 0 0-39.602-.06l-2.048-.002c-10.954-.013-21.908-.046-32.861-.088q-16.868-.062-33.735-.071c-6.314-.004-12.628-.016-18.943-.048q-8.905-.044-17.812-.025-3.273 0-6.544-.025a689 689 0 0 0-8.921.001l-2.626-.042c-6.643.088-9.344 2.264-13.036 7.872" fill="#858688"/>
  <path d="m159 270 17.25-.187 5.364-.083c11.296-.101 22.995.226 32.386 7.27 4.615 5.443 4.62 10.68 4.367 17.684-.53 4.79-1.124 6.687-4.367 10.316-8.47 5.657-17.736 7.335-27.754 7.195l-2.117-.006c-2.564-.01-5.128-.038-7.691-.064L159 312z" fill="#124E9C"/>
  <path d="m160 200 14.938-.125 4.656-.055c18.678-.076 18.678-.076 26.406 6.18 4.143 4.571 4.371 9.43 4.266 15.402-.429 4.187-1.55 7.356-4.266 10.598-6.632 4.892-12.5 6.158-20.61 6.098l-1.953-.003c-2.396-.006-4.791-.02-7.187-.032L160 238z" fill="#0D4A9A"/>
</svg>
