<?xml version="1.0" encoding="UTF-8"?>
<svg version="1.1" xmlns="http://www.w3.org/2000/svg" width="512" height="512">
<path d="M0 0 C0.9366925 -0.00367669 1.873385 -0.00735338 2.83846211 -0.01114148 C5.99674468 -0.02220938 9.15499437 -0.02602741 12.31329346 -0.02983093 C14.56983546 -0.03609322 16.82637643 -0.04273981 19.08291626 -0.04974365 C25.22762923 -0.06717482 31.37233441 -0.0777111 37.517066 -0.08594918 C41.35343245 -0.09109465 45.18979646 -0.09717057 49.02616119 -0.10346031 C59.64623603 -0.12033288 70.26630872 -0.13496789 80.8863945 -0.14220905 C83.64295198 -0.14411898 86.39950945 -0.1460393 89.15606689 -0.147995 C90.18377169 -0.14872061 90.18377169 -0.14872061 91.2322382 -0.14946087 C102.3311352 -0.15776126 113.42992442 -0.18309776 124.52877435 -0.21557567 C135.92165796 -0.24864238 147.31446751 -0.26632466 158.70740628 -0.26985329 C165.10496414 -0.27220748 171.5023517 -0.28121597 177.8998642 -0.30631447 C183.91792108 -0.3295423 189.93569491 -0.33384961 195.95378494 -0.32355309 C198.16370458 -0.32305633 200.37363789 -0.32941758 202.58351517 -0.34310913 C205.59882438 -0.36074679 208.61310883 -0.35376155 211.62841797 -0.34057617 C212.50449479 -0.35154542 213.38057161 -0.36251466 214.28319621 -0.37381631 C219.68717443 -0.31670176 222.8011441 0.52155055 227.06817627 4.14717102 C228.73950996 6.49866486 230.1300898 8.69877519 231.50567627 11.20967102 C232.12684326 12.30311829 232.12684326 12.30311829 232.76055908 13.4186554 C234.21230234 15.98623602 235.64059973 18.56607991 237.06817627 21.14717102 C238.23044728 23.22947552 239.39323481 25.31149177 240.55645752 27.39326477 C243.11317364 31.97840541 245.66051915 36.5686393 248.20098877 41.16279602 C251.84516206 47.75208464 255.51312509 54.3278575 259.19317627 60.89717102 C259.76906494 61.92519836 260.34495361 62.95322571 260.93829346 64.0124054 C265.33132908 71.84702392 269.74919312 79.66745314 274.1741333 87.48408508 C278.75403509 95.5789887 283.29794166 103.69377139 287.83770752 111.81123352 C291.72975664 118.76686897 295.64151399 125.71102306 299.56817627 132.64717102 C304.0901845 140.63495198 308.58769961 148.63602182 313.06817627 156.64717102 C317.69978724 164.92605477 322.34138659 173.19914641 327.00567627 181.45967102 C327.54482666 182.41454407 328.08397705 183.36941711 328.63946533 184.35322571 C331.99639002 190.28595662 335.3992589 196.18630928 338.89630127 202.03779602 C341.10431885 206.01222766 341.85787458 209.69101627 341.06817627 214.14717102 C339.46700228 218.34848154 337.25809336 222.23039065 335.06817627 226.14717102 C334.62780029 226.93656067 334.18742432 227.72595032 333.73370361 228.53926086 C331.05220546 233.32988278 328.34706524 238.10672696 325.63067627 242.87763977 C322.07919365 249.1171264 318.57007994 255.37975898 315.06817627 261.64717102 C310.05796635 270.60672734 305.0198846 279.5499928 299.96270752 288.48310852 C295.97780858 295.52663449 292.01827633 302.58407819 288.06817627 309.64717102 C283.05758124 318.60651312 278.01988576 327.54999076 272.96270752 336.48310852 C268.97780843 343.52663476 265.01832563 350.58410556 261.06817627 357.64717102 C256.03883928 366.63870015 250.99764241 375.62329735 245.90997314 384.58198547 C243.0867137 389.55595006 240.29361158 394.54395788 237.54083252 399.55732727 C236.9595459 400.60775208 236.37825928 401.65817688 235.77935791 402.74043274 C234.6671029 404.75166402 233.56295144 406.76740565 232.46832275 408.7882843 C229.42866787 414.2603443 226.82512382 418.26869725 221.06817627 421.14717102 C218.08342083 421.25200808 215.12164173 421.29496393 212.13635254 421.29434204 C211.19966004 421.29801873 210.26296754 421.30169542 209.29789042 421.30548352 C206.13960786 421.31655142 202.98135816 421.32036945 199.82305908 421.32417297 C197.56651708 421.33043526 195.30997611 421.33708185 193.05343628 421.34408569 C186.90872331 421.36151686 180.76401812 421.37205314 174.61928654 421.38029122 C170.78292009 421.38543669 166.94655608 421.39151261 163.11019135 421.39780235 C152.49011651 421.41467492 141.87004382 421.42930993 131.24995804 421.43655109 C128.49340056 421.43846102 125.73684309 421.44038134 122.98028564 421.44233704 C121.95258085 421.44306265 121.95258085 421.44306265 120.90411434 421.44380292 C109.80521734 421.4521033 98.70642812 421.4774398 87.60757819 421.50991771 C76.21469458 421.54298442 64.82188503 421.5606667 53.42894626 421.56419533 C47.0313884 421.56654952 40.63400084 421.57555801 34.23648834 421.60065651 C28.21843146 421.62388434 22.20065763 421.62819165 16.1825676 421.61789513 C13.97264796 421.61739838 11.76271465 421.62375962 9.55283737 421.63745117 C6.53752816 421.65508883 3.52324371 421.64810359 0.50793457 421.63491821 C-0.80618066 421.65137208 -0.80618066 421.65137208 -2.14684367 421.66815835 C-7.55082189 421.6110438 -10.66479156 420.77279149 -14.93182373 417.14717102 C-16.60315742 414.79567718 -17.99373726 412.59556685 -19.36932373 410.08467102 C-19.78343506 409.35570618 -20.19754639 408.62674133 -20.62420654 407.87568665 C-22.0759498 405.30810602 -23.50424719 402.72826213 -24.93182373 400.14717102 C-26.09409474 398.06486652 -27.25688227 395.98285027 -28.42010498 393.90107727 C-30.9768211 389.31593663 -33.52416661 384.72570274 -36.06463623 380.13154602 C-39.70880952 373.5422574 -43.37677255 366.96648454 -47.05682373 360.39717102 C-47.6327124 359.36914368 -48.20860107 358.34111633 -48.80194092 357.28193665 C-53.19497654 349.44731812 -57.61284058 341.6268889 -62.03778076 333.81025696 C-66.61768255 325.71535334 -71.16158912 317.60057065 -75.70135498 309.48310852 C-79.5934041 302.52747307 -83.50516145 295.58331898 -87.43182373 288.64717102 C-91.95383196 280.65939006 -96.45134707 272.65832022 -100.93182373 264.64717102 C-105.5634347 256.36828727 -110.20503406 248.09519563 -114.86932373 239.83467102 C-115.40847412 238.87979797 -115.94762451 237.92492493 -116.50311279 236.94111633 C-119.86003748 231.00838542 -123.26290636 225.10803276 -126.75994873 219.25654602 C-128.96796631 215.28211438 -129.72152204 211.60332578 -128.93182373 207.14717102 C-127.33064974 202.9458605 -125.12174082 199.06395139 -122.93182373 195.14717102 C-122.49144775 194.35778137 -122.05107178 193.56839172 -121.59735107 192.75508118 C-118.91585292 187.96445926 -116.2107127 183.18761508 -113.49432373 178.41670227 C-109.94284111 172.17721564 -106.4337274 165.91458306 -102.93182373 159.64717102 C-97.92161381 150.6876147 -92.88353206 141.74434924 -87.82635498 132.81123352 C-83.84145604 125.76770755 -79.8819238 118.71026385 -75.93182373 111.64717102 C-70.9212287 102.68782892 -65.88353322 93.74435128 -60.82635498 84.81123352 C-56.84145589 77.76770728 -52.88197309 70.71023648 -48.93182373 63.64717102 C-43.90248674 54.6556419 -38.86128987 45.67104469 -33.77362061 36.71235657 C-30.95036116 31.73839198 -28.15725904 26.75038417 -25.40447998 21.73701477 C-24.82319336 20.68658997 -24.24190674 19.63616516 -23.64300537 18.5539093 C-22.53075036 16.54267802 -21.4265989 14.52693639 -20.33197021 12.50605774 C-15.02511781 2.95253411 -10.90881503 -0.00227252 0 0 Z " fill="#0C4A9A" transform="translate(149.93182373046875,45.85282897949219)"/>
<path d="M0 0 C98.84153005 0 98.84153005 0 116 15 C117.9140625 17.515625 117.9140625 17.515625 119.625 20.25 C120.19476563 21.14203125 120.76453125 22.0340625 121.3515625 22.953125 C125.24335545 30.14648637 126.5293095 36.12590589 126.4375 44.3125 C126.43137695 45.23877197 126.42525391 46.16504395 126.41894531 47.11938477 C126.13133491 59.71118938 121.67418969 68.42115518 112.9765625 77.38671875 C110.50933735 79.40048157 107.87771831 80.65841583 105 82 C105.89460938 82.38929688 106.78921875 82.77859375 107.7109375 83.1796875 C119.90155371 88.72118415 129.12644198 96.07940431 134 109 C137.34803182 120.436437 136.51328779 135.66014886 131.484375 146.41015625 C129.27802298 150.2596599 126.96633509 153.69757768 124 157 C123.47664063 157.60328125 122.95328125 158.2065625 122.4140625 158.828125 C112.26767215 169.78432115 99.27358704 173.40480236 85 176 C56.95 176 28.9 176 0 176 C0 117.92 0 59.84 0 0 Z " fill="#FEFEFE" transform="translate(122,168)"/>
<path d="M0 0 C37.62 0 75.24 0 114 0 C114 10.89 114 21.78 114 33 C88.92 33 63.84 33 38 33 C38 48.18 38 63.36 38 79 C58.79 79 79.58 79 101 79 C101 90.22 101 101.44 101 113 C80.21 113 59.42 113 38 113 C38 133.79 38 154.58 38 176 C25.46 176 12.92 176 0 176 C0 117.92 0 59.84 0 0 Z " fill="#FCFDFD" transform="translate(276,168)"/>
<path d="M0 0 C0.9366925 -0.00367669 1.873385 -0.00735338 2.83846211 -0.01114148 C5.99674468 -0.02220938 9.15499437 -0.02602741 12.31329346 -0.02983093 C14.56983546 -0.03609322 16.82637643 -0.04273981 19.08291626 -0.04974365 C25.22762923 -0.06717482 31.37233441 -0.0777111 37.517066 -0.08594918 C41.35343245 -0.09109465 45.18979646 -0.09717057 49.02616119 -0.10346031 C59.64623603 -0.12033288 70.26630872 -0.13496789 80.8863945 -0.14220905 C83.64295198 -0.14411898 86.39950945 -0.1460393 89.15606689 -0.147995 C90.18377169 -0.14872061 90.18377169 -0.14872061 91.2322382 -0.14946087 C102.3311352 -0.15776126 113.42992442 -0.18309776 124.52877435 -0.21557567 C135.92165796 -0.24864238 147.31446751 -0.26632466 158.70740628 -0.26985329 C165.10496414 -0.27220748 171.5023517 -0.28121597 177.8998642 -0.30631447 C183.91792108 -0.3295423 189.93569491 -0.33384961 195.95378494 -0.32355309 C198.16370458 -0.32305633 200.37363789 -0.32941758 202.58351517 -0.34310913 C205.59882438 -0.36074679 208.61310883 -0.35376155 211.62841797 -0.34057617 C212.50449479 -0.35154542 213.38057161 -0.36251466 214.28319621 -0.37381631 C219.68717443 -0.31670176 222.8011441 0.52155055 227.06817627 4.14717102 C228.73950996 6.49866486 230.1300898 8.69877519 231.50567627 11.20967102 C232.12684326 12.30311829 232.12684326 12.30311829 232.76055908 13.4186554 C234.21230234 15.98623602 235.64059973 18.56607991 237.06817627 21.14717102 C238.23044728 23.22947552 239.39323481 25.31149177 240.55645752 27.39326477 C243.11317364 31.97840541 245.66051915 36.5686393 248.20098877 41.16279602 C251.84516206 47.75208464 255.51312509 54.3278575 259.19317627 60.89717102 C259.76906494 61.92519836 260.34495361 62.95322571 260.93829346 64.0124054 C265.33132908 71.84702392 269.74919312 79.66745314 274.1741333 87.48408508 C278.75403509 95.5789887 283.29794166 103.69377139 287.83770752 111.81123352 C291.72975664 118.76686897 295.64151399 125.71102306 299.56817627 132.64717102 C304.0901845 140.63495198 308.58769961 148.63602182 313.06817627 156.64717102 C317.69978724 164.92605477 322.34138659 173.19914641 327.00567627 181.45967102 C327.54482666 182.41454407 328.08397705 183.36941711 328.63946533 184.35322571 C331.99639002 190.28595662 335.3992589 196.18630928 338.89630127 202.03779602 C341.10431885 206.01222766 341.85787458 209.69101627 341.06817627 214.14717102 C339.46700228 218.34848154 337.25809336 222.23039065 335.06817627 226.14717102 C334.62780029 226.93656067 334.18742432 227.72595032 333.73370361 228.53926086 C331.05220546 233.32988278 328.34706524 238.10672696 325.63067627 242.87763977 C322.07919365 249.1171264 318.57007994 255.37975898 315.06817627 261.64717102 C310.05796635 270.60672734 305.0198846 279.5499928 299.96270752 288.48310852 C295.97780858 295.52663449 292.01827633 302.58407819 288.06817627 309.64717102 C283.05758124 318.60651312 278.01988576 327.54999076 272.96270752 336.48310852 C268.97780843 343.52663476 265.01832563 350.58410556 261.06817627 357.64717102 C256.03883928 366.63870015 250.99764241 375.62329735 245.90997314 384.58198547 C243.0867137 389.55595006 240.29361158 394.54395788 237.54083252 399.55732727 C236.9595459 400.60775208 236.37825928 401.65817688 235.77935791 402.74043274 C234.6671029 404.75166402 233.56295144 406.76740565 232.46832275 408.7882843 C229.42866787 414.2603443 226.82512382 418.26869725 221.06817627 421.14717102 C218.08342083 421.25200808 215.12164173 421.29496393 212.13635254 421.29434204 C211.19966004 421.29801873 210.26296754 421.30169542 209.29789042 421.30548352 C206.13960786 421.31655142 202.98135816 421.32036945 199.82305908 421.32417297 C197.56651708 421.33043526 195.30997611 421.33708185 193.05343628 421.34408569 C186.90872331 421.36151686 180.76401812 421.37205314 174.61928654 421.38029122 C170.78292009 421.38543669 166.94655608 421.39151261 163.11019135 421.39780235 C152.49011651 421.41467492 141.87004382 421.42930993 131.24995804 421.43655109 C128.49340056 421.43846102 125.73684309 421.44038134 122.98028564 421.44233704 C121.95258085 421.44306265 121.95258085 421.44306265 120.90411434 421.44380292 C109.80521734 421.4521033 98.70642812 421.4774398 87.60757819 421.50991771 C76.21469458 421.54298442 64.82188503 421.5606667 53.42894626 421.56419533 C47.0313884 421.56654952 40.63400084 421.57555801 34.23648834 421.60065651 C28.21843146 421.62388434 22.20065763 421.62819165 16.1825676 421.61789513 C13.97264796 421.61739838 11.76271465 421.62375962 9.55283737 421.63745117 C6.53752816 421.65508883 3.52324371 421.64810359 0.50793457 421.63491821 C-0.80618066 421.65137208 -0.80618066 421.65137208 -2.14684367 421.66815835 C-7.55082189 421.6110438 -10.66479156 420.77279149 -14.93182373 417.14717102 C-16.60315742 414.79567718 -17.99373726 412.59556685 -19.36932373 410.08467102 C-19.78343506 409.35570618 -20.19754639 408.62674133 -20.62420654 407.87568665 C-22.0759498 405.30810602 -23.50424719 402.72826213 -24.93182373 400.14717102 C-26.09409474 398.06486652 -27.25688227 395.98285027 -28.42010498 393.90107727 C-30.9768211 389.31593663 -33.52416661 384.72570274 -36.06463623 380.13154602 C-39.70880952 373.5422574 -43.37677255 366.96648454 -47.05682373 360.39717102 C-47.6327124 359.36914368 -48.20860107 358.34111633 -48.80194092 357.28193665 C-53.19497654 349.44731812 -57.61284058 341.6268889 -62.03778076 333.81025696 C-66.61768255 325.71535334 -71.16158912 317.60057065 -75.70135498 309.48310852 C-79.5934041 302.52747307 -83.50516145 295.58331898 -87.43182373 288.64717102 C-91.95383196 280.65939006 -96.45134707 272.65832022 -100.93182373 264.64717102 C-105.5634347 256.36828727 -110.20503406 248.09519563 -114.86932373 239.83467102 C-115.40847412 238.87979797 -115.94762451 237.92492493 -116.50311279 236.94111633 C-119.86003748 231.00838542 -123.26290636 225.10803276 -126.75994873 219.25654602 C-128.96796631 215.28211438 -129.72152204 211.60332578 -128.93182373 207.14717102 C-127.33064974 202.9458605 -125.12174082 199.06395139 -122.93182373 195.14717102 C-122.49144775 194.35778137 -122.05107178 193.56839172 -121.59735107 192.75508118 C-118.91585292 187.96445926 -116.2107127 183.18761508 -113.49432373 178.41670227 C-109.94284111 172.17721564 -106.4337274 165.91458306 -102.93182373 159.64717102 C-97.92161381 150.6876147 -92.88353206 141.74434924 -87.82635498 132.81123352 C-83.84145604 125.76770755 -79.8819238 118.71026385 -75.93182373 111.64717102 C-70.9212287 102.68782892 -65.88353322 93.74435128 -60.82635498 84.81123352 C-56.84145589 77.76770728 -52.88197309 70.71023648 -48.93182373 63.64717102 C-43.90248674 54.6556419 -38.86128987 45.67104469 -33.77362061 36.71235657 C-30.95036116 31.73839198 -28.15725904 26.75038417 -25.40447998 21.73701477 C-24.82319336 20.68658997 -24.24190674 19.63616516 -23.64300537 18.5539093 C-22.53075036 16.54267802 -21.4265989 14.52693639 -20.33197021 12.50605774 C-15.02511781 2.95253411 -10.90881503 -0.00227252 0 0 Z M-14.39471436 12.36933899 C-14.78852295 13.11844543 -15.18233154 13.86755188 -15.58807373 14.63935852 C-16.27522461 15.92580261 -16.27522461 15.92580261 -16.97625732 17.23823547 C-17.45659424 18.1569342 -17.93693115 19.07563293 -18.43182373 20.02217102 C-19.49530541 22.0139236 -20.56046303 24.00478206 -21.62713623 25.99482727 C-22.44552979 27.52647522 -22.44552979 27.52647522 -23.28045654 29.08906555 C-25.88801625 33.91790839 -28.59412883 38.689326 -31.30682373 43.45967102 C-35.87444559 51.50784267 -40.4162268 59.56968622 -44.93182373 67.64717102 C-49.94224882 76.60660766 -54.98011475 85.54999166 -60.03729248 94.48310852 C-64.02219142 101.52663449 -67.98172367 108.58407819 -71.93182373 115.64717102 C-76.94241876 124.60651312 -81.98011424 133.54999076 -87.03729248 142.48310852 C-91.61061416 150.56670375 -96.14842393 158.66990691 -100.68157959 166.77607727 C-105.29110601 175.01432497 -109.92882574 183.23635968 -114.58221436 191.4499054 C-115.56749177 193.18975491 -116.54771519 194.93247902 -117.52215576 196.67842102 C-118.46182606 198.3240646 -119.43722237 199.94981507 -120.44696045 201.55342102 C-120.91505127 202.31654602 -121.38314209 203.07967102 -121.86541748 203.86592102 C-122.49854858 204.85495422 -122.49854858 204.85495422 -123.14447021 205.8639679 C-124.63156579 210.17631451 -123.43918241 213.99818689 -121.64764404 218.05537415 C-121.10720459 219.00347961 -120.56676514 219.95158508 -120.00994873 220.92842102 C-119.40336426 222.00559387 -118.79677979 223.08276672 -118.17181396 224.19258118 C-117.51511719 225.33259583 -116.85842041 226.47261047 -116.18182373 227.64717102 C-115.49727505 228.85410337 -114.81377735 230.06163236 -114.13128662 231.26972961 C-112.74090015 233.72682376 -111.34441478 236.18027654 -109.94207764 238.63056946 C-107.59073185 242.73951932 -105.26563369 246.8631245 -102.94061279 250.98701477 C-101.35647017 253.79495434 -99.76752559 256.60013504 -98.17791748 259.40498352 C-94.74211842 265.47430324 -91.3356868 271.55989874 -87.93182373 277.64717102 C-83.45153059 285.65842218 -78.95383138 293.65939109 -74.43182373 301.64717102 C-69.3144757 310.68657411 -64.23249193 319.74531398 -59.16229248 328.81123352 C-55.27024336 335.76686897 -51.35848601 342.71102306 -47.43182373 349.64717102 C-42.90981498 357.6349529 -38.41246836 365.63611518 -33.93182373 373.64717102 C-31.59944268 377.81437152 -29.26610241 381.98103319 -26.93182373 386.14717102 C-26.3320874 387.21757629 -25.73235107 388.28798157 -25.11444092 389.39082336 C-23.34798285 392.54032593 -21.57795148 395.68779256 -19.80682373 398.83467102 C-19.27444092 399.78471008 -18.74205811 400.73474915 -18.19354248 401.71357727 C-14.20353962 410.01020144 -14.20353962 410.01020144 -7.93182373 416.14717102 C-4.98033607 416.24760923 -2.05229381 416.28610993 0.89956665 416.28088379 C1.82541962 416.28314935 2.75127259 416.2854149 3.70518172 416.28774911 C6.82668065 416.29411037 9.9481364 416.29325839 13.06964111 416.29243469 C15.29987138 416.29542487 17.53010114 416.29882706 19.7603302 416.3026123 C25.8326035 416.31147109 31.90486272 416.31379121 37.97714186 416.31442809 C43.03948034 416.31537569 48.10181552 416.31905229 53.16415274 416.32260019 C64.42147418 416.33028585 75.67878894 416.33326816 86.93611221 416.33259483 C87.61197851 416.33255488 88.2878448 416.33251492 88.98419189 416.33247375 C89.99922586 416.33241243 89.99922586 416.33241243 91.03476556 416.33234987 C102.00241303 416.33194339 112.97002618 416.34151266 123.93766372 416.35561212 C135.19267159 416.36996711 146.44766322 416.37669953 157.70268214 416.37601835 C164.02410773 416.37576288 170.34549449 416.37864059 176.66691208 416.3891964 C182.61103411 416.39885058 188.55507998 416.39897501 194.49920464 416.39167976 C196.684155 416.39063057 198.86911004 416.39301654 201.05405235 416.39904022 C204.03039843 416.4067159 207.00647858 416.40214473 209.9828186 416.39440918 C210.85304826 416.39955274 211.72327792 416.40469631 212.61987817 416.40999573 C213.81607056 416.40309754 213.81607056 416.40309754 215.03642845 416.39605999 C216.06688209 416.39638604 216.06688209 416.39638604 217.11815298 416.39671868 C219.46814655 416.09598617 221.04786383 415.37204481 223.06817627 414.14717102 C224.67071729 411.99385667 224.67071729 411.99385667 226.02911377 409.36201477 C226.84907837 407.87290588 226.84907837 407.87290588 227.68560791 406.35371399 C228.26560547 405.27492981 228.84560303 404.19614563 229.44317627 403.08467102 C230.69940978 400.79415455 231.95592809 398.50379425 233.21270752 396.21357727 C233.85959461 395.02637075 234.5062415 393.83903331 235.15264893 392.65156555 C238.10412217 387.25194193 241.11754009 381.88754922 244.13067627 376.52217102 C245.29864525 374.43623365 246.466614 372.35029615 247.63458252 370.26435852 C251.46327559 363.43643255 255.31743318 356.62301611 259.17388916 349.81074524 C263.15875873 342.76741138 267.11816494 335.71010518 271.06817627 328.64717102 C276.0787713 319.68782892 281.11646678 310.74435128 286.17364502 301.81123352 C290.15854396 294.76770755 294.1180762 287.71026385 298.06817627 280.64717102 C302.54852617 272.63594935 307.04643307 264.63510202 311.56817627 256.64717102 C316.26707937 248.34107302 320.95716449 240.03008634 325.63067627 231.70967102 C326.21462158 230.67326477 326.79856689 229.63685852 327.40020752 228.56904602 C328.97061249 225.76946894 330.51993784 222.95904136 332.06817627 220.14717102 C332.50500732 219.39290833 332.94183838 218.63864563 333.39190674 217.86152649 C335.8658732 213.39102569 336.28902392 211.05743562 335.06817627 206.14717102 C333.82213922 203.32836774 333.82213922 203.32836774 332.18145752 200.53388977 C331.57994873 199.46364563 330.97843994 198.39340149 330.35870361 197.29072571 C329.70595459 196.15022766 329.05320557 195.00972961 328.38067627 193.83467102 C327.69962738 192.62976046 327.01946517 191.42434834 326.34014893 190.21846008 C324.94115897 187.73762564 323.53755487 185.25949292 322.13018799 182.78340149 C319.62050899 178.36420639 317.14475934 173.92623279 314.66851807 169.48823547 C309.13546179 159.57539756 303.55483304 149.68957778 297.96221924 139.81025696 C293.38231745 131.71535334 288.83841088 123.60057065 284.29864502 115.48310852 C280.4065959 108.52747307 276.49483855 101.58331898 272.56817627 94.64717102 C267.45082824 85.60776793 262.36884447 76.54902806 257.29864502 67.48310852 C252.88382615 59.59321049 248.44230248 51.71876745 243.98468018 43.85298157 C241.05356533 38.67623285 238.1407112 33.48994673 235.24786377 28.29170227 C234.61300049 27.15217102 233.97813721 26.01263977 233.32403564 24.83857727 C232.09627204 22.63293756 230.87090102 20.42596382 229.64825439 18.21748352 C229.09331299 17.22103821 228.53837158 16.2245929 227.96661377 15.19795227 C227.47854248 14.31792542 226.99047119 13.43789856 226.48760986 12.53120422 C223.76048843 7.69661968 223.76048843 7.69661968 219.06817627 5.14717102 C216.07903931 5.04216559 213.11281044 4.99497915 210.1232605 4.99327087 C209.19725867 4.98888862 208.27125684 4.98450637 207.31719434 4.97999132 C204.20114593 4.96659136 201.0851258 4.96042182 197.96905518 4.95429993 C195.74029919 4.94640007 193.51154449 4.9381312 191.28279114 4.92951965 C183.95345279 4.90329195 176.6241087 4.88799396 169.29473877 4.87373352 C166.77413301 4.86837466 164.25352728 4.86299716 161.7329216 4.85760117 C151.25177615 4.83597377 140.77063084 4.8170838 130.28946877 4.80597878 C127.57019674 4.80304908 124.85092476 4.80008741 122.13165283 4.79707336 C121.11786059 4.79595429 121.11786059 4.79595429 120.08358769 4.7948126 C109.12954786 4.78215282 98.17567012 4.74892011 87.22170611 4.70727153 C75.97683669 4.664867 64.73204714 4.64169341 53.48708856 4.63605821 C47.17281037 4.63239819 40.85880714 4.6203071 34.54460526 4.58795547 C28.60692983 4.55796853 22.66969711 4.55152966 16.7319622 4.56333923 C14.55064052 4.56356073 12.36929884 4.55519281 10.18804741 4.53768539 C7.2138465 4.51510933 4.24126674 4.52323525 1.26705933 4.53916931 C0.40042463 4.52528722 -0.46621007 4.51140514 -1.35910642 4.49710238 C-8.00147948 4.58500876 -10.70261403 6.76094494 -14.39471436 12.36933899 Z " fill="#858688" transform="translate(149.93182373046875,45.85282897949219)"/>
<path d="M0 0 C8.53875 -0.0928125 8.53875 -0.0928125 17.25 -0.1875 C19.02020508 -0.21481201 20.79041016 -0.24212402 22.61425781 -0.27026367 C33.90982879 -0.37136475 45.60857022 -0.04357234 55 7 C59.61491352 12.44323133 59.61972224 17.67946845 59.3671875 24.68359375 C58.83681393 29.47388274 58.24330788 31.37058404 55 35 C46.53024896 40.65663804 37.26442927 42.33549083 27.24609375 42.1953125 C26.54746216 42.19329834 25.84883057 42.19128418 25.12902832 42.18920898 C22.56511698 42.17889031 20.00130058 42.1509701 17.4375 42.125 C8.8059375 42.063125 8.8059375 42.063125 0 42 C0 28.14 0 14.28 0 0 Z " fill="#124E9C" transform="translate(159,270)"/>
<path d="M0 0 C7.3940625 -0.061875 7.3940625 -0.061875 14.9375 -0.125 C16.47398193 -0.14320801 18.01046387 -0.16141602 19.59350586 -0.18017578 C38.27243703 -0.25564621 38.27243703 -0.25564621 46 6 C50.14256995 10.57111167 50.3711579 15.43094057 50.265625 21.40234375 C49.83746716 25.58947554 48.71635638 28.7576648 46 32 C39.36825213 36.89167458 33.50001351 38.15760342 25.390625 38.09765625 C24.74593262 38.09664917 24.10124023 38.09564209 23.43701172 38.09460449 C21.04132291 38.08939402 18.64565957 38.07543281 16.25 38.0625 C10.8875 38.041875 5.525 38.02125 0 38 C0 25.46 0 12.92 0 0 Z " fill="#0D4A9A" transform="translate(160,200)"/>
</svg>
