<?xml version="1.0" encoding="UTF-8"?>
<svg version="1.1" xmlns="http://www.w3.org/2000/svg" width="48" height="48">
<path d="M0 0 C1.25554688 -0.00128906 2.51109375 -0.00257813 3.8046875 -0.00390625 C4.46178711 -0.00181152 5.11888672 0.0002832 5.79589844 0.00244141 C7.80411335 0.00779016 9.81210459 0.00249559 11.8203125 -0.00390625 C13.07585938 -0.00261719 14.33140625 -0.00132812 15.625 0 C16.78644531 0.00112793 17.94789062 0.00225586 19.14453125 0.00341797 C21.8125 0.1328125 21.8125 0.1328125 22.8125 1.1328125 C22.90108646 3.87175335 22.92773479 6.5853452 22.91015625 9.32421875 C22.9087413 10.14405746 22.90732635 10.96389618 22.90586853 11.80857849 C22.90025289 14.43752632 22.88769779 17.06639023 22.875 19.6953125 C22.86998701 21.47330607 22.86542376 23.25130096 22.86132812 25.02929688 C22.85027839 29.39716795 22.83300331 33.76497598 22.8125 38.1328125 C21.27047384 37.67569012 19.72889786 37.21704903 18.1875 36.7578125 C17.27194336 36.48888184 16.35638672 36.21995117 15.41308594 35.94287109 C12.8125 35.1328125 12.8125 35.1328125 9.578125 33.796875 C5.83049826 32.89702112 4.00204574 33.87446038 0.5625 35.5078125 C-5.08054813 38.1328125 -5.08054813 38.1328125 -7.1875 38.1328125 C-7.21214928 32.88175808 -7.23033568 27.63073705 -7.24243164 22.37963867 C-7.24747218 20.59187229 -7.25430454 18.80411005 -7.26293945 17.01635742 C-7.2750173 14.45230082 -7.28073094 11.88829853 -7.28515625 9.32421875 C-7.29031754 8.5200502 -7.29547882 7.71588165 -7.30079651 6.88734436 C-7.30099215 4.96879535 -7.24951983 3.05035882 -7.1875 1.1328125 C-5.35715945 -0.69752805 -2.45538008 0.00238453 0 0 Z " fill="#FFFFFF" transform="translate(13.1875,7.8671875)"/>
<path d="M0 0 C4.25414623 -0.02465622 8.50825498 -0.04283899 12.76245117 -0.05493164 C14.21070073 -0.05997101 15.65894517 -0.06680253 17.10717773 -0.07543945 C19.18474588 -0.08752247 21.26224697 -0.09323211 23.33984375 -0.09765625 C24.59144287 -0.10289307 25.84304199 -0.10812988 27.13256836 -0.11352539 C30 0 30 0 31 1 C31.08865208 3.8843382 31.11521296 6.74462158 31.09765625 9.62890625 C31.0962413 10.49313705 31.09482635 11.35736786 31.09336853 12.24778748 C31.08775239 15.01939292 31.07519719 17.7909188 31.0625 20.5625 C31.05748708 22.4368478 31.05292381 24.31119685 31.04882812 26.18554688 C31.03777772 30.79039544 31.0205023 35.39518421 31 40 C30.01 40 29.02 40 28 40 C28 27.79 28 15.58 28 3 C18.76 3 9.52 3 0 3 C0 2.01 0 1.02 0 0 Z " fill="#FFFFFF" transform="translate(11,2)"/>
</svg>
