<svg xmlns="http://www.w3.org/2000/svg" width="48" height="48">
  <path d="m13.188 7.867 3.804-.004 1.991.007q3.013.005 6.025-.007l3.805.004 3.519.004C35 8 35 8 36 9c.089 2.739.115 5.453.098 8.191l-.005 2.485c-.005 2.629-.018 5.258-.03 7.887q-.008 2.666-.014 5.333Q36.032 39.448 36 46q-2.313-.686-4.625-1.375l-2.774-.815C26 43 26 43 22.766 41.664c-3.748-.9-5.576.078-9.016 1.711C8.107 46 8.107 46 6 46a6590 6590 0 0 1-.055-15.753q-.008-2.682-.02-5.363-.018-3.847-.023-7.693l-.015-2.436c0-1.919.051-3.837.113-5.755 1.83-1.83 4.732-1.13 7.188-1.133" fill="#FFF"/>
  <path d="M11 2q6.381-.037 12.762-.055 2.173-.008 4.345-.02 3.116-.017 6.233-.023l3.793-.016C41 2 41 2 42 3c.089 2.884.115 5.745.098 8.629l-.005 2.619c-.005 2.771-.018 5.543-.03 8.315q-.008 2.81-.014 5.623Q42.032 35.093 42 42h-3V5H11z" fill="#FFF"/>
</svg>
