<svg xmlns="http://www.w3.org/2000/svg" width="48" height="48">
  <path d="m18 4.734 2.938-.007L24 4.75l3.063-.023L30 4.734l2.688.007C35 5 35 5 38 7c.267 2.695.348 5.158.293 7.852l-.013 2.345a863 863 0 0 1-.093 7.428 3058 3058 0 0 0-.04 5.031Q38.093 35.83 38 42l-1.848-.623-2.437-.818-2.41-.811c-6.866-2.228-10.727-1.568-17.168 1.342C12 42 12 42 10 42a1943 1943 0 0 1-.165-14.844 786 786 0 0 0-.061-5.052 761 761 0 0 1-.067-7.252c-.015-.756-.03-1.511-.047-2.29 0-2.122 0-2.122.34-5.562 3.259-2.172 4.226-2.256 8-2.266" fill="#D00"/>
  <path d="m18 4.734 2.938-.007L24 4.75l3.063-.023L30 4.734l2.688.007C35 5 35 5 38 7c.267 2.695.348 5.158.293 7.852l-.013 2.345a863 863 0 0 1-.093 7.428 3058 3058 0 0 0-.04 5.031Q38.093 35.83 38 42l-1.848-.623-2.437-.818-2.41-.811c-6.866-2.228-10.727-1.568-17.168 1.342C12 42 12 42 10 42a1943 1943 0 0 1-.165-14.844 786 786 0 0 0-.061-5.052 761 761 0 0 1-.067-7.252c-.015-.756-.03-1.511-.047-2.29 0-2.122 0-2.122.34-5.562 3.259-2.172 4.226-2.256 8-2.266M12 8v30c4.667-.732 4.667-.732 7.438-2.125 4.91-1.677 8.967.262 13.562 2.125h3V8z" fill="#2C2C2C"/>
</svg>
