<svg xmlns="http://www.w3.org/2000/svg" width="48" height="48">
  <path d="m12.271 5.861 2.229.006 2.275-.003q2.385 0 4.772.006 3.664.005 7.328-.007 2.313 0 4.625.004l2.229-.006C40.885 5.885 40.885 5.885 42 7c.1 2.51.14 4.99.133 7.5l.003 2.275q0 2.385-.006 4.772-.005 3.664.007 7.328 0 2.313-.004 4.625l.006 2.229C42.115 40.885 42.115 40.885 41 42c-2.51.1-4.99.14-7.5.133l-2.275.003q-2.385 0-4.772-.006-3.664-.005-7.328.007-2.312 0-4.625-.004l-2.229.006C7.115 42.115 7.115 42.115 6 41c-.1-2.51-.14-4.99-.133-7.5l-.003-2.275q0-2.385.006-4.772.005-3.664-.007-7.328 0-2.312.004-4.625l-.006-2.229c.029-6.125.285-6.381 6.41-6.41M9 9v30h30V9z" fill="#FFF"/>
  <path d="M21 30h13v4H21zm0-8h13v4H21zm0-8h13v4H21zm-7 8 3 1-1 3-3-1zm-1 9h4l-1 3-3-1zm1-17 3 1v2h-4z" fill="#FFF"/>
</svg>
