<?xml version="1.0" encoding="UTF-8"?>
<svg version="1.1" xmlns="http://www.w3.org/2000/svg" width="48" height="48">
<path d="M0 0 C1.11503906 -0.00515625 2.23007813 -0.0103125 3.37890625 -0.015625 C6.4375 0.25 6.4375 0.25 10.4375 2.25 C10.7675 10.5 11.0975 18.75 11.4375 27.25 C12.7575 26.59 14.0775 25.93 15.4375 25.25 C18.3828125 25.01953125 18.3828125 25.01953125 21.5625 25.0625 C22.61695313 25.06894531 23.67140625 25.07539062 24.7578125 25.08203125 C27.4375 25.25 27.4375 25.25 29.4375 26.25 C29.4375 18 29.4375 9.75 29.4375 1.25 C30.4275 1.58 31.4175 1.91 32.4375 2.25 C32.4375 11.49 32.4375 20.73 32.4375 30.25 C29.4375 31.25 29.4375 31.25 26.4375 30.25 C24.60693607 30.13145444 22.77185694 30.07482767 20.9375 30.0625 C19.9784375 30.04832031 19.019375 30.03414062 18.03125 30.01953125 C15.20003861 30.06244889 15.20003861 30.06244889 12.4375 32.25 C6.88194444 31.69444444 6.88194444 31.69444444 5.4375 30.25 C3.68984548 30.15030159 1.9379897 30.12031955 0.1875 30.125 C-1.24335938 30.12113281 -1.24335938 30.12113281 -2.703125 30.1171875 C-5.5702689 30.1767539 -5.5702689 30.1767539 -8.359375 30.8203125 C-9.08640625 30.96210937 -9.8134375 31.10390625 -10.5625 31.25 C-11.5625 30.25 -11.5625 30.25 -11.67602539 27.56616211 C-11.67078857 26.39835205 -11.66555176 25.23054199 -11.66015625 24.02734375 C-11.65693359 22.76728516 -11.65371094 21.50722656 -11.65039062 20.20898438 C-11.64203403 18.86848891 -11.63356907 17.52799412 -11.625 16.1875 C-11.6199866 14.84310058 -11.61542342 13.4986994 -11.61132812 12.15429688 C-11.59949488 8.85282059 -11.58300971 5.55143197 -11.5625 2.25 C-7.49982379 0.51334928 -4.44185501 -0.02058797 0 0 Z M-8.5625 5.25 C-8.5625 12.18 -8.5625 19.11 -8.5625 26.25 C-3.2825 26.25 1.9975 26.25 7.4375 26.25 C7.4375 19.32 7.4375 12.39 7.4375 5.25 C4.70672124 3.88461062 2.48189633 4.11768174 -0.5625 4.125 C-1.635 4.12242188 -2.7075 4.11984375 -3.8125 4.1171875 C-6.52432052 4.0627659 -6.52432052 4.0627659 -8.5625 5.25 Z " fill="#FFFFFF" transform="translate(13.5625,7.75)"/>
<path d="M0 0 C1.91036386 16.66670013 1.91036386 16.66670013 -1.16162109 22.02685547 C-4.25894639 25.70243018 -7.94162595 28.46133273 -12 31 C-12.33 31 -12.66 31 -13 31 C-14.94025789 13.82512462 -14.94025789 13.82512462 -10.36328125 8.06640625 C-2.7153053 0 -2.7153053 0 0 0 Z " fill="#FFFFFF" transform="translate(40,1)"/>
</svg>
