<svg xmlns="http://www.w3.org/2000/svg" width="48" height="48">
  <path d="m13.563 7.75 3.378-.016C20 8 20 8 24 10l1 25 4-2c2.945-.23 2.945-.23 6.125-.187l3.195.019C41 33 41 33 43 34V9l3 1v28c-3 1-3 1-6 0a95 95 0 0 0-5.5-.187l-2.906-.043c-2.831.042-2.831.042-5.594 2.23-5.556-.556-5.556-.556-7-2-1.748-.1-3.5-.13-5.25-.125l-2.89-.008c-2.868.06-2.868.06-5.657.703L3 39c-1-1-1-1-1.114-3.684l.016-3.539.01-3.818.026-4.021q.008-2.018.013-4.034Q1.97 14.952 2 10c4.063-1.737 7.12-2.27 11.563-2.25M5 13v21h16V13c-2.73-1.365-4.956-1.132-8-1.125l-3.25-.008C7.038 11.813 7.038 11.813 5 13" fill="#FFF"/>
  <path d="M40 1c1.91 16.667 1.91 16.667-1.162 22.027C35.741 26.702 32.058 29.46 28 32h-1c-1.94-17.175-1.94-17.175 2.637-22.934C37.285 1 37.285 1 40 1" fill="#FFF"/>
</svg>
